# xmcd CD database file
#
# Track frame offsets:
#	187
#	17819
#	39432
#	61312
#	80662
#	102304
#	125644
#	148709
#	174247
#
# Disc length: 2666 seconds
#
# Revision: 1
# Processed by: cddbd v1.5PL3 Copyright (c) Steve Scherf et al.
# Submitted via: CDex 1.51
#
DISCID=760a6809
DTITLE=ASIA - Asia
DYEAR=1982
DGENRE=Rock
TTITLE0=Heat Of The Moment
TTITLE1=Only Time Will Tell
TTITLE2=Sole Survivor
TTITLE3=One Step Closer
TTITLE4=Time Again
TTITLE5=Wildest Dreams
TTITLE6=Without You
TTITLE7=Cutting It Fine
TTITLE8=Here Comes The Feeling
EXTD=YEAR: 1982
EXTT0=
EXTT1=
EXTT2=
EXTT3=
EXTT4=
EXTT5=
EXTT6=
EXTT7=
EXTT8=
PLAYORDER=
